<svg 
 xmlns="http://www.w3.org/2000/svg"
 xmlns:xlink="http://www.w3.org/1999/xlink"
 width="28px" height="30px">
<path fill-rule="evenodd"  fill="rgb(48, 48, 48)"
 d="M14.776,2.239 C28.000,2.804 27.879,16.328 27.879,16.328 C25.478,14.114 23.456,14.114 21.434,16.328 C19.008,14.114 17.390,14.114 15.166,16.328 L15.166,24.983 C15.570,29.412 11.728,31.223 8.695,29.210 C7.505,28.421 7.684,25.587 9.099,25.990 C12.133,29.814 12.310,25.185 12.310,25.185 L12.310,16.328 C10.313,14.114 8.088,14.114 6.066,16.328 C4.651,14.316 2.629,13.913 0.000,16.328 C0.000,16.328 0.163,3.308 12.739,2.418 L13.548,0.003 L14.776,2.239 Z"/>
</svg>